<svg width="1481" height="478" viewBox="0 0 1481 478" fill="none" xmlns="http://www.w3.org/2000/svg">
<rect x="505.5" y="5.5" width="219" height="219" fill="#C4C4C4" stroke="black" stroke-width="3"/>
<rect x="532.5" y="32.5" width="165" height="165" fill="#716F6F" stroke="black" stroke-width="3"/>
<path d="M505 5.5L534 34" stroke="black" stroke-width="3"/>
<path d="M697 34L724.5 5.5" stroke="black" stroke-width="3"/>
<path d="M505.5 224.5L533 197.5" stroke="black" stroke-width="3"/>
<path d="M697 197L725 225" stroke="black" stroke-width="3"/>
<rect x="756.5" y="5.5" width="219" height="219" fill="#C4C4C4" stroke="black" stroke-width="3"/>
<rect x="783.5" y="32.5" width="165" height="165" fill="#716F6F" stroke="black" stroke-width="3"/>
<path d="M756 5.5L785 34" stroke="black" stroke-width="3"/>
<path d="M948 34L975.5 5.5" stroke="black" stroke-width="3"/>
<path d="M756.5 224.5L784 197.5" stroke="black" stroke-width="3"/>
<path d="M948 197L976 225" stroke="black" stroke-width="3"/>
<rect x="505.5" y="256.5" width="219" height="219" fill="#C4C4C4" stroke="black" stroke-width="3"/>
<rect x="532.5" y="283.5" width="165" height="165" fill="#716F6F" stroke="black" stroke-width="3"/>
<path d="M505 256.5L534 285" stroke="black" stroke-width="3"/>
<path d="M697 285L724.5 256.5" stroke="black" stroke-width="3"/>
<path d="M505.5 475.5L533 448.5" stroke="black" stroke-width="3"/>
<path d="M697 448L725 476" stroke="black" stroke-width="3"/>
<rect x="756.5" y="256.5" width="219" height="219" fill="#C4C4C4" stroke="black" stroke-width="3"/>
<rect x="783.5" y="283.5" width="165" height="165" fill="#716F6F" stroke="black" stroke-width="3"/>
<path d="M756 256.5L785 285" stroke="black" stroke-width="3"/>
<path d="M948 285L975.5 256.5" stroke="black" stroke-width="3"/>
<path d="M756.5 475.5L784 448.5" stroke="black" stroke-width="3"/>
<path d="M948 448L976 476" stroke="black" stroke-width="3"/>
<rect x="2.5" y="256.5" width="219" height="219" fill="#C4C4C4" stroke="black" stroke-width="3"/>
<rect x="29.5" y="283.5" width="165" height="165" fill="#716F6F" stroke="black" stroke-width="3"/>
<path d="M2 256.5L31 285" stroke="black" stroke-width="3"/>
<path d="M194 285L221.5 256.5" stroke="black" stroke-width="3"/>
<path d="M2.5 475.5L30 448.5" stroke="black" stroke-width="3"/>
<path d="M194 448L222 476" stroke="black" stroke-width="3"/>
<rect x="253.5" y="256.5" width="219" height="219" fill="#C4C4C4" stroke="black" stroke-width="3"/>
<rect x="280.5" y="283.5" width="165" height="165" fill="#716F6F" stroke="black" stroke-width="3"/>
<path d="M253 256.5L282 285" stroke="black" stroke-width="3"/>
<path d="M445 285L472.5 256.5" stroke="black" stroke-width="3"/>
<path d="M253.5 475.5L281 448.5" stroke="black" stroke-width="3"/>
<path d="M445 448L473 476" stroke="black" stroke-width="3"/>
<rect x="1008.5" y="256.5" width="219" height="219" fill="#C4C4C4" stroke="black" stroke-width="3"/>
<rect x="1035.5" y="283.5" width="165" height="165" fill="#716F6F" stroke="black" stroke-width="3"/>
<path d="M1008 256.5L1037 285" stroke="black" stroke-width="3"/>
<path d="M1200 285L1227.5 256.5" stroke="black" stroke-width="3"/>
<path d="M1008.5 475.5L1036 448.5" stroke="black" stroke-width="3"/>
<path d="M1200 448L1228 476" stroke="black" stroke-width="3"/>
<rect x="1259.5" y="256.5" width="219" height="219" fill="#C4C4C4" stroke="black" stroke-width="3"/>
<rect x="1286.5" y="283.5" width="165" height="165" fill="#716F6F" stroke="black" stroke-width="3"/>
<path d="M1259 256.5L1288 285" stroke="black" stroke-width="3"/>
<path d="M1451 285L1478.5 256.5" stroke="black" stroke-width="3"/>
<path d="M1259.5 475.5L1287 448.5" stroke="black" stroke-width="3"/>
<path d="M1451 448L1479 476" stroke="black" stroke-width="3"/>
<path d="M605.05 170.65C598.55 170.65 593 169.7 588.4 167.8C583.9 165.8 579.6 162.5 575.5 157.9L581.95 151.15C585.05 154.95 588.35 157.7 591.85 159.4C595.45 161.1 599.75 161.95 604.75 161.95C612.15 161.95 617.85 160.1 621.85 156.4C625.85 152.6 627.85 147.2 627.85 140.2V64H638.65V140.5C638.65 150.2 635.75 157.65 629.95 162.85C624.15 168.05 615.85 170.65 605.05 170.65Z" fill="white"/>
<path d="M1107.25 312H1118.05V417H1107.25V312Z" fill="white"/>
<path d="M1370.9 423.65C1361.7 423.65 1354.1 422.3 1348.1 419.6C1342.2 416.8 1336.75 412.1 1331.75 405.5L1339.1 399.05C1343.4 404.85 1347.85 408.95 1352.45 411.35C1357.15 413.75 1363.1 414.95 1370.3 414.95C1379.7 414.95 1386.95 413.15 1392.05 409.55C1397.25 405.95 1399.85 400.9 1399.85 394.4C1399.85 390.3 1398.9 387.05 1397 384.65C1395.1 382.25 1391.75 380.2 1386.95 378.5C1382.15 376.7 1375.05 374.85 1365.65 372.95C1355.35 370.95 1347.7 367.65 1342.7 363.05C1337.8 358.45 1335.35 352.3 1335.35 344.6C1335.35 335.5 1338.6 328.35 1345.1 323.15C1351.7 317.95 1360.75 315.35 1372.25 315.35C1380.45 315.35 1387.55 316.8 1393.55 319.7C1399.55 322.5 1404.2 326.65 1407.5 332.15L1400.15 338.15C1397.05 333.55 1393.1 330.05 1388.3 327.65C1383.6 325.25 1378.15 324.05 1371.95 324.05C1364.05 324.05 1357.75 325.85 1353.05 329.45C1348.45 333.05 1346.15 337.9 1346.15 344C1346.15 349.4 1348.2 353.7 1352.3 356.9C1356.4 360 1363.15 362.5 1372.55 364.4C1382.45 366.4 1390.1 368.65 1395.5 371.15C1401 373.65 1404.9 376.7 1407.2 380.3C1409.5 383.8 1410.65 388.4 1410.65 394.1C1410.65 403.7 1407.25 411.05 1400.45 416.15C1393.65 421.15 1383.8 423.65 1370.9 423.65Z" fill="white"/>
<path d="M85.5 348.35C85.5 337.75 88.3 329.9 93.9 324.8C99.6 319.6 108.3 317 120 317H156.15V325.7H120C111.9 325.7 105.9 327.55 102 331.25C98.2 334.95 96.3 340.65 96.3 348.35V368.15H148.5V376.85H96.3V422H85.5V348.35Z" fill="white"/>
<path d="M358.95 417C347.25 417 338.55 414.45 332.85 409.35C327.25 404.15 324.45 396.25 324.45 385.65V343.35C324.45 332.75 327.25 324.9 332.85 319.8C338.55 314.6 347.25 312 358.95 312H395.1V320.7H358.95C350.85 320.7 344.85 322.55 340.95 326.25C337.15 329.95 335.25 335.65 335.25 343.35V360.15H387.45V368.85H335.25V385.65C335.25 393.35 337.15 399.05 340.95 402.75C344.85 406.45 350.85 408.3 358.95 408.3H396V417H358.95Z" fill="white"/>
<path d="M657.15 420H645.6L638.4 393C637 387.8 635.4 383.75 633.6 380.85C631.8 377.95 629.3 375.85 626.1 374.55C623 373.15 618.75 372.45 613.35 372.45H589.05V420H578.25V315H623.25C633.05 315 640.5 317.45 645.6 322.35C650.8 327.25 653.4 334.15 653.4 343.05C653.4 350.55 651.6 356.55 648 361.05C644.5 365.45 639.5 368.2 633 369.3C637.4 370.9 640.8 373.55 643.2 377.25C645.7 380.95 647.9 386.2 649.8 393L657.15 420ZM622.05 363.75C628.55 363.75 633.6 362 637.2 358.5C640.8 355 642.6 350.1 642.6 343.8C642.6 337.4 640.8 332.45 637.2 328.95C633.6 325.45 628.55 323.7 622.05 323.7H589.05V363.75H622.05Z" fill="white"/>
<path d="M903.15 422H891.6L884.4 395C883 389.8 881.4 385.75 879.6 382.85C877.8 379.95 875.3 377.85 872.1 376.55C869 375.15 864.75 374.45 859.35 374.45H835.05V422H824.25V317H869.25C879.05 317 886.5 319.45 891.6 324.35C896.8 329.25 899.4 336.15 899.4 345.05C899.4 352.55 897.6 358.55 894 363.05C890.5 367.45 885.5 370.2 879 371.3C883.4 372.9 886.8 375.55 889.2 379.25C891.7 382.95 893.9 388.2 895.8 395L903.15 422ZM868.05 365.75C874.55 365.75 879.6 364 883.2 360.5C886.8 357 888.6 352.1 888.6 345.8C888.6 339.4 886.8 334.45 883.2 330.95C879.6 327.45 874.55 325.7 868.05 325.7H835.05V365.75H868.05Z" fill="white"/>
<path d="M867.25 158.65C865.15 158.65 863.35 157.95 861.85 156.55C860.45 155.05 859.75 153.25 859.75 151.15C859.75 149.05 860.45 147.25 861.85 145.75C863.35 144.25 865.15 143.5 867.25 143.5C869.35 143.5 871.1 144.25 872.5 145.75C874 147.25 874.75 149.05 874.75 151.15C874.75 153.25 874 155.05 872.5 156.55C871.1 157.95 869.35 158.65 867.25 158.65Z" fill="white"/>
</svg>
